# Blender v3.1.2 OBJ File: ''
# www.blender.org
o Cube
v 0.000000 1.000000 0.000000
v 1.000000 -1.000000 -1.000000
v 1.000000 -1.000000 1.000000
v -1.000000 -1.000000 -1.000000
v -1.000000 -1.000000 1.000000
vt 0.599115 0.599115
vt 0.299607 0.299607
vt 0.599115 0.000100
vt 0.000100 0.000100
vt 0.400685 0.599315
vt 0.000100 0.999900
vt 0.000100 0.599315
vt 0.000100 0.599115
vt 0.400685 0.999900
vn 0.0000 0.4472 0.8944
vn -0.8944 0.4472 0.0000
vn 0.0000 -1.0000 0.0000
vn 0.8944 0.4472 0.0000
vn 0.0000 0.4472 -0.8944
s off
f 3/1/1 1/2/1 5/3/1
f 5/3/2 1/2/2 4/4/2
f 2/5/3 5/6/3 4/7/3
f 2/8/4 1/2/4 3/1/4
f 4/4/5 1/2/5 2/8/5
f 2/5/3 3/9/3 5/6/3
